<?xml version="1.0" standalone="no"?>
<!DOCTYPE svg PUBLIC "-//W3C//DTD SVG 20010904//EN"
 "http://www.w3.org/TR/2001/REC-SVG-20010904/DTD/svg10.dtd">
<svg version="1.0" xmlns="http://www.w3.org/2000/svg"
 width="450.000000pt" height="450.000000pt" viewBox="0 0 450.000000 450.000000"
 preserveAspectRatio="xMidYMid meet">
<metadata>
Created by potrace 1.15, written by Peter Selinger 2001-2017
</metadata>
<g transform="translate(0.000000,450.000000) scale(0.100000,-0.100000)"
fill="#000000" stroke="none">
<path d="M1928 4490 c-92 -15 -318 -70 -393 -97 -38 -13 -88 -30 -110 -38
-106 -34 -410 -200 -479 -260 -16 -14 -33 -25 -38 -25 -4 0 -16 -8 -26 -17
-10 -10 -49 -44 -87 -75 -78 -63 -229 -216 -291 -293 -21 -27 -47 -57 -56 -67
-10 -10 -18 -22 -18 -26 0 -5 -9 -20 -21 -33 -29 -34 -109 -157 -120 -187 -5
-14 -19 -39 -32 -56 -38 -53 -116 -240 -166 -396 -24 -75 -57 -217 -76 -324
-21 -124 -21 -568 0 -692 17 -97 17 -97 41 -199 40 -169 148 -446 206 -527 11
-16 16 -28 11 -28 -4 0 -3 -4 2 -8 6 -4 17 -19 25 -34 46 -83 87 -146 107
-166 13 -13 23 -26 23 -31 0 -4 8 -16 18 -27 9 -10 40 -47 67 -82 61 -77 209
-225 290 -289 33 -26 69 -56 79 -65 11 -10 23 -18 26 -18 4 0 20 -11 36 -25
68 -60 407 -243 484 -262 14 -3 41 -13 60 -21 19 -9 40 -17 45 -19 25 -7 282
-74 300 -78 171 -35 641 -35 825 0 68 13 295 76 370 103 161 58 444 207 524
277 16 14 33 25 38 25 4 0 16 8 26 17 10 10 49 44 87 75 78 63 229 216 291
293 21 27 47 57 57 67 9 10 17 22 17 26 0 5 11 22 25 38 42 48 138 212 206
354 67 140 109 268 166 507 28 117 28 121 28 443 0 322 0 326 -28 443 -57 239
-99 367 -166 507 -68 142 -164 306 -206 354 -14 16 -25 33 -25 38 0 4 -8 16
-17 26 -10 10 -44 49 -75 87 -63 78 -216 229 -293 291 -27 21 -57 47 -67 57
-10 9 -22 17 -26 17 -5 0 -22 11 -38 25 -48 42 -212 138 -354 206 -141 68
-272 111 -507 165 -113 27 -130 28 -413 30 -162 1 -321 -2 -352 -6z m312
-1975 c162 -85 355 -185 427 -222 73 -38 133 -71 133 -75 0 -4 -53 -34 -117
-67 -65 -33 -260 -134 -433 -224 -173 -90 -318 -162 -322 -160 -5 2 -8 206 -8
454 0 353 3 449 13 449 6 0 145 -70 307 -155z"/>
</g>
</svg>
